# xmcd
#
# Track frame offsets: 
#        150
#        14780
#        27695
#        45005
#        59265
#        73058
#        86335
#        103780
#        120393
#        133758
#        147810
#        162440
#        178283
#        192155
#        208693
#        221593
#        239513
#        260263
#        277710
#        299933
#
# Disc length: 4256 seconds
#
# Revision: 5
# Processed by: cddbd v1.5.2PL0 Copyright (c) Steve Scherf et al.
# Submitted via: ExactAudioCopyFreeDBPlugin 1.0
#
DISCID=36109e14
DTITLE=ΧΑΡΙΣ ΑΛΕΞΙΟΥ - ΟΙ ΜΕΓΑΛΥΤΕΡΕΣ ΕΠΙΤΥΧΙΕΣ ΤΗΣ
DYEAR=1987
DGENRE=Country
TTITLE0=Η ΑΓΑΠΗ ΕΙΝΑΙ ΖΑΛΗ
TTITLE1=ΤΟ ΓΡΑΜΜΑ
TTITLE2=ΒΗΜΑ ΒΗΜΑ
TTITLE3=ΖΗΛΕΙΑ ΜΟΥ
TTITLE4=ΟΛΕΣ ΤΟΥ ΚΟΣΜΟΥ ΟΙ ΚΥΡΙΑΚΕΣ
TTITLE5=ΦΕΥΓΩ
TTITLE6=ΞΗΜΕΡΩΝΕΙ
TTITLE7=Ο ΦΑΝΤΑΡΟΣ
TTITLE8=ΟΙ ΜΑΓΚΕΣ ΔΕΝ ΥΠΑΡΧΟΥΝ ΠΙΑ
TTITLE9=Ο ΚΑΙΞΗΣ
TTITLE10=ΜΙΑ ΕΙΝΑΙ Η ΟΥΣΙΑ
TTITLE11=ΑΝ ΠΕΘΑΝΕΙ ΜΙΑ ΑΓΑΠΗ
TTITLE12=ΟΠΟΙΑ ΚΑΙ ΝΑ 'ΣΑΙ
TTITLE13=ΟΔΟΣ ΑΡΙΣΤΟΤΕΛΟΥΣ
TTITLE14=CANTO PER ME
TTITLE15=ΚΙΤΡΙΝΗ ΠΟΛΗ
TTITLE16=ΕΡΩΤΙΚΟ
TTITLE17=ΟΛΑ ΣΕ ΘΥΜΙΖΟΥΝ
TTITLE18=ΕΛΕΝΗ
TTITLE19=Η ΜΠΑΛΑΝΤΑ ΤΗΣ ΙΦΙΓΕΝΕΙΑΣ
EXTD=YEAR: 1987
EXTT0=
EXTT1=
EXTT2=
EXTT3=
EXTT4=
EXTT5=
EXTT6=
EXTT7=
EXTT8=
EXTT9=
EXTT10=
EXTT11=
EXTT12=
EXTT13=
EXTT14=
EXTT15=
EXTT16=
EXTT17=
EXTT18=
EXTT19=
PLAYORDER=
